<svg width="512" height="512" viewBox="0 0 512 512" fill="none" xmlns="http://www.w3.org/2000/svg">
<g clip-path="url(#clip0_503_655)">
<g clip-path="url(#clip1_503_655)">
<path fill-rule="evenodd" clip-rule="evenodd" d="M190.016 195.001C207.398 194.925 225.223 199.912 238.733 211.15C245.655 216.753 251.247 223.783 255.996 231.268C264.541 217.456 277.023 205.72 292.414 200.063C311.17 193.021 332.37 193.508 351.093 200.409C367.448 206.38 381.747 216.785 394.716 228.229C404.862 237.185 414.251 246.985 424.699 255.605C430.205 260.072 436.121 264.258 442.892 266.573C451.892 269.645 462.535 266.746 468.971 259.813C474.931 253.323 474.563 242.106 467.997 236.179C463.822 232.577 456.683 233.302 453.73 238.104C451.145 241.912 452.595 246.66 454.617 250.348C449.242 246.422 443.855 240.949 443.877 233.81C442.763 225.557 448.885 218.278 456.218 215.39C470.528 209.668 488.473 214.6 497.504 227.201C506.19 238.959 506.882 254.415 505.368 268.423C503.54 281.727 496.098 294.144 485.066 301.845C469.576 312.9 449.945 316.329 431.265 316.091C413.309 315.604 395.538 311.548 378.902 304.842C351.083 293.657 325.048 278.201 296.319 269.266C286.79 265.567 276.655 263.566 266.466 262.95C258.354 262.896 250.663 262.517 243.005 263.036C233.66 263.934 224.368 265.848 215.618 269.277C186.403 278.363 159.978 294.209 131.629 305.415C107.692 314.728 81.17 319.054 55.7623 313.884C41.5495 311.007 27.4016 304.723 17.8075 293.528C9.59784 284.009 5.66067 271.267 6.05006 258.785C5.59577 247.006 8.18089 234.492 15.9687 225.319C23.2157 216.623 34.8866 212.21 46.0924 213.183C53.3069 213.519 60.6188 216.666 65.0752 222.475C68.5797 227.072 68.796 233.367 67.2601 238.742C65.3889 243.577 61.5274 247.352 57.3307 250.251C59.4723 246.638 60.7703 241.868 58.2392 238.093C55.1241 233.064 47.4553 232.555 43.3991 236.687C38.4019 241.825 37.3527 250.219 40.7058 256.514C44.3401 263.112 51.8575 266.876 59.137 267.644C70.1481 268.596 79.699 261.771 87.7788 255.151C104.501 240.754 119.557 224.281 138.108 212.102C153.402 201.848 171.422 194.914 190.016 195.001V195.001V195.001V195.001Z" fill="#423426"/>
</g>
</g>
<defs>
<clipPath id="clip0_503_655">
<rect width="500" height="122" fill="white" transform="translate(6 195)"/>
</clipPath>
<clipPath id="clip1_503_655">
<rect width="500" height="122" fill="white" transform="translate(6 195)"/>
</clipPath>
</defs>
</svg>
