<svg width="512" height="512" viewBox="0 0 512 512" fill="none" xmlns="http://www.w3.org/2000/svg">
<path d="M2.38419e-06 24H47.5842V339.786H235.758V378.719H2.38419e-06V24Z" fill="#3492FF"/>
<path fill-rule="evenodd" clip-rule="evenodd" d="M365.533 117.005C397.977 112.68 432.584 119.168 458.539 140.798C486.657 160.264 501.797 194.871 503.96 227.314C508.286 266.247 503.96 305.179 482.331 337.623C462.865 363.578 432.584 380.882 397.977 383.045C365.533 387.37 328.764 380.882 300.646 359.252C274.691 337.623 261.713 305.179 257.387 272.736C253.061 238.129 257.387 199.196 279.016 168.916C296.32 138.635 330.927 119.168 365.533 117.005ZM372.022 153.775C393.651 151.612 417.443 158.101 434.747 173.241C449.887 190.545 458.539 212.174 460.702 233.803C462.865 257.595 460.702 283.55 449.887 305.179C439.073 326.809 419.606 341.949 395.814 346.275C374.185 350.601 350.393 344.112 335.252 331.134C317.949 318.157 307.134 298.691 302.809 279.224C298.483 251.106 300.646 222.988 311.46 197.033C322.275 173.241 346.067 155.938 372.022 153.775Z" fill="#3492FF"/>
<path d="M510.449 434.955H0V489.028H510.449V434.955Z" fill="#3492FF"/>
</svg>
